<svg width="12" height="12" viewBox="0 0 12 12" fill="none" xmlns="http://www.w3.org/2000/svg">
<path d="M8.69755 0.638384C10.4405 0.0573576 11.3118 -0.232936 11.7719 0.227104C12.232 0.687221 11.9417 1.5591 11.3606 3.30245L9.70004 8.28306C8.87416 10.7608 8.46113 12 7.70225 12C6.94363 11.9996 6.53019 10.7604 5.70446 8.28306L5.57902 7.90776L9.27848 4.20932C9.68946 3.79819 9.68945 3.13162 9.27848 2.72049C8.86732 2.3098 8.20068 2.30961 7.78965 2.72049L4.09018 6.41893L3.71592 6.29452C1.23853 5.46868 0.000132152 5.0555 0 4.29672C0 3.53786 1.2384 3.12481 3.71592 2.29893L8.69755 0.638384Z" fill="white"/>
</svg>
